<svg xmlns="http://www.w3.org/2000/svg" xmlns:xlink="http://www.w3.org/1999/xlink" width="270" zoomAndPan="magnify" viewBox="0 0 202.5 30.000001" height="40" preserveAspectRatio="xMidYMid meet" version="1.0"><defs><g/></defs><g fill="#ffffff" fill-opacity="1"><g transform="translate(98.024125, 22.261405)"><g><path d="M 6.5625 0.375 C 4.875 0.375 3.570312 0.00390625 2.65625 -0.734375 C 1.75 -1.472656 1.285156 -2.460938 1.265625 -3.703125 L 3.015625 -3.703125 C 3.046875 -3.078125 3.328125 -2.503906 3.859375 -1.984375 C 4.398438 -1.472656 5.300781 -1.21875 6.5625 -1.21875 C 7.738281 -1.21875 8.617188 -1.460938 9.203125 -1.953125 C 9.796875 -2.441406 10.09375 -3.035156 10.09375 -3.734375 C 10.09375 -4.378906 9.847656 -4.878906 9.359375 -5.234375 C 8.867188 -5.585938 8.160156 -5.816406 7.234375 -5.921875 L 5.75 -6.0625 C 4.550781 -6.195312 3.582031 -6.566406 2.84375 -7.171875 C 2.101562 -7.773438 1.734375 -8.609375 1.734375 -9.671875 C 1.734375 -10.453125 1.929688 -11.132812 2.328125 -11.71875 C 2.734375 -12.300781 3.296875 -12.753906 4.015625 -13.078125 C 4.734375 -13.398438 5.582031 -13.5625 6.5625 -13.5625 C 7.976562 -13.5625 9.128906 -13.226562 10.015625 -12.5625 C 10.898438 -11.894531 11.351562 -10.945312 11.375 -9.71875 L 9.625 -9.71875 C 9.613281 -10.351562 9.347656 -10.882812 8.828125 -11.3125 C 8.316406 -11.75 7.5625 -11.96875 6.5625 -11.96875 C 5.539062 -11.96875 4.773438 -11.742188 4.265625 -11.296875 C 3.753906 -10.847656 3.5 -10.300781 3.5 -9.65625 C 3.5 -9.101562 3.691406 -8.648438 4.078125 -8.296875 C 4.460938 -7.941406 5.0625 -7.722656 5.875 -7.640625 L 7.359375 -7.484375 C 8.691406 -7.335938 9.773438 -6.957031 10.609375 -6.34375 C 11.441406 -5.726562 11.859375 -4.847656 11.859375 -3.703125 C 11.859375 -2.921875 11.640625 -2.21875 11.203125 -1.59375 C 10.765625 -0.976562 10.144531 -0.492188 9.34375 -0.140625 C 8.550781 0.203125 7.625 0.375 6.5625 0.375 Z M 6.5625 0.375 "/></g></g></g><g fill="#ffffff" fill-opacity="1"><g transform="translate(111.183508, 22.261405)"><g><path d="M 8.3125 0.421875 C 7.175781 0.421875 6.179688 0.226562 5.328125 -0.15625 C 4.472656 -0.550781 3.75 -1.078125 3.15625 -1.734375 C 2.570312 -2.390625 2.128906 -3.125 1.828125 -3.9375 C 1.523438 -4.75 1.375 -5.578125 1.375 -6.421875 L 1.375 -6.765625 C 1.375 -7.609375 1.53125 -8.441406 1.84375 -9.265625 C 2.15625 -10.085938 2.609375 -10.820312 3.203125 -11.46875 C 3.804688 -12.113281 4.535156 -12.628906 5.390625 -13.015625 C 6.242188 -13.410156 7.21875 -13.609375 8.3125 -13.609375 C 9.414062 -13.609375 10.394531 -13.410156 11.25 -13.015625 C 12.101562 -12.628906 12.828125 -12.113281 13.421875 -11.46875 C 14.023438 -10.820312 14.476562 -10.085938 14.78125 -9.265625 C 15.09375 -8.441406 15.25 -7.609375 15.25 -6.765625 L 15.25 -6.421875 C 15.25 -5.578125 15.097656 -4.75 14.796875 -3.9375 C 14.503906 -3.125 14.0625 -2.390625 13.46875 -1.734375 C 12.882812 -1.078125 12.160156 -0.550781 11.296875 -0.15625 C 10.429688 0.226562 9.4375 0.421875 8.3125 0.421875 Z M 8.3125 -1.25 C 9.40625 -1.25 10.328125 -1.492188 11.078125 -1.984375 C 11.835938 -2.472656 12.414062 -3.117188 12.8125 -3.921875 C 13.207031 -4.722656 13.40625 -5.613281 13.40625 -6.59375 C 13.40625 -7.582031 13.203125 -8.476562 12.796875 -9.28125 C 12.390625 -10.09375 11.804688 -10.734375 11.046875 -11.203125 C 10.285156 -11.679688 9.375 -11.921875 8.3125 -11.921875 C 7.257812 -11.921875 6.351562 -11.679688 5.59375 -11.203125 C 4.832031 -10.734375 4.25 -10.09375 3.84375 -9.28125 C 3.4375 -8.476562 3.234375 -7.582031 3.234375 -6.59375 C 3.234375 -5.613281 3.429688 -4.722656 3.828125 -3.921875 C 4.222656 -3.117188 4.796875 -2.472656 5.546875 -1.984375 C 6.304688 -1.492188 7.226562 -1.25 8.3125 -1.25 Z M 8.3125 -1.25 "/></g></g></g><g fill="#ffffff" fill-opacity="1"><g transform="translate(127.825521, 22.261405)"><g><path d="M 6.96875 0.375 C 5.394531 0.375 4.191406 -0.132812 3.359375 -1.15625 C 2.523438 -2.175781 2.109375 -3.597656 2.109375 -5.421875 L 2.109375 -13.1875 L 3.953125 -13.1875 L 3.953125 -5.046875 C 3.953125 -3.898438 4.253906 -2.988281 4.859375 -2.3125 C 5.460938 -1.644531 6.304688 -1.3125 7.390625 -1.3125 C 8.515625 -1.3125 9.410156 -1.664062 10.078125 -2.375 C 10.753906 -3.09375 11.09375 -4.050781 11.09375 -5.25 L 11.09375 -13.1875 L 12.953125 -13.1875 L 12.953125 0 L 11.46875 0 L 11.46875 -5.5 L 11.765625 -5.5 C 11.765625 -4.269531 11.585938 -3.21875 11.234375 -2.34375 C 10.890625 -1.476562 10.367188 -0.804688 9.671875 -0.328125 C 8.972656 0.140625 8.097656 0.375 7.046875 0.375 Z M 6.96875 0.375 "/></g></g></g><g fill="#ffffff" fill-opacity="1"><g transform="translate(143.248622, 22.261405)"><g><path d="M 1.5 0 L 1.5 -2.171875 L 9.125 -11.6875 L 9.046875 -11.265625 L 8.703125 -11.8125 L 8.984375 -11.671875 L 1.421875 -11.671875 L 1.421875 -13.15625 L 10.703125 -13.15625 L 10.703125 -11 L 3.03125 -1.5 L 3.109375 -1.859375 L 3.484375 -1.3125 L 3.203125 -1.5 L 11.0625 -1.5 L 11.0625 0 Z M 1.5 0 "/></g></g></g><g fill="#ffffff" fill-opacity="1"><g transform="translate(155.313457, 22.261405)"><g><path d="M 10.421875 0 L 10.421875 -3.953125 L 10.125 -3.953125 L 10.125 -8.625 C 10.125 -9.601562 9.863281 -10.351562 9.34375 -10.875 C 8.832031 -11.40625 8.039062 -11.671875 6.96875 -11.671875 C 6.46875 -11.671875 5.960938 -11.660156 5.453125 -11.640625 C 4.953125 -11.617188 4.472656 -11.597656 4.015625 -11.578125 C 3.554688 -11.554688 3.15625 -11.53125 2.8125 -11.5 L 2.8125 -13.140625 C 3.175781 -13.171875 3.546875 -13.203125 3.921875 -13.234375 C 4.304688 -13.265625 4.703125 -13.285156 5.109375 -13.296875 C 5.515625 -13.304688 5.910156 -13.3125 6.296875 -13.3125 C 7.640625 -13.3125 8.71875 -13.144531 9.53125 -12.8125 C 10.351562 -12.476562 10.957031 -11.957031 11.34375 -11.25 C 11.726562 -10.550781 11.921875 -9.617188 11.921875 -8.453125 L 11.921875 0 Z M 5.96875 0.34375 C 5.039062 0.34375 4.21875 0.179688 3.5 -0.140625 C 2.789062 -0.472656 2.238281 -0.953125 1.84375 -1.578125 C 1.457031 -2.210938 1.265625 -2.976562 1.265625 -3.875 C 1.265625 -4.757812 1.46875 -5.507812 1.875 -6.125 C 2.28125 -6.738281 2.867188 -7.207031 3.640625 -7.53125 C 4.410156 -7.851562 5.34375 -8.015625 6.4375 -8.015625 L 10.296875 -8.015625 L 10.296875 -6.59375 L 6.3125 -6.59375 C 5.269531 -6.59375 4.46875 -6.335938 3.90625 -5.828125 C 3.351562 -5.328125 3.078125 -4.671875 3.078125 -3.859375 C 3.078125 -3.023438 3.367188 -2.363281 3.953125 -1.875 C 4.535156 -1.382812 5.320312 -1.140625 6.3125 -1.140625 C 6.925781 -1.140625 7.515625 -1.25 8.078125 -1.46875 C 8.648438 -1.695312 9.125 -2.082031 9.5 -2.625 C 9.882812 -3.164062 10.09375 -3.90625 10.125 -4.84375 L 10.671875 -4.078125 C 10.609375 -3.097656 10.375 -2.28125 9.96875 -1.625 C 9.570312 -0.96875 9.035156 -0.472656 8.359375 -0.140625 C 7.679688 0.179688 6.882812 0.34375 5.96875 0.34375 Z M 5.96875 0.34375 "/></g></g></g><g fill="#ffffff" fill-opacity="1"><g transform="translate(27.064841, 22.212116)"><g><path d="M 2.140625 0 L 2.140625 -18.15625 L 5.59375 -18.15625 L 5.59375 0 Z M 0.453125 -15.578125 L 0.453125 -18.15625 L 5.59375 -18.15625 L 5.59375 -15.578125 Z M 0.453125 -15.578125 "/></g></g></g><g fill="#ffffff" fill-opacity="1"><g transform="translate(34.652017, 22.212116)"><g><path d="M 6.5625 0.421875 C 5.007812 0.421875 3.804688 -0.0859375 2.953125 -1.109375 C 2.097656 -2.140625 1.671875 -3.671875 1.671875 -5.703125 L 1.671875 -13.53125 L 5.125 -13.53125 L 5.125 -5.390625 C 5.125 -4.566406 5.351562 -3.910156 5.8125 -3.421875 C 6.28125 -2.929688 6.914062 -2.6875 7.71875 -2.6875 C 8.507812 -2.6875 9.15625 -2.941406 9.65625 -3.453125 C 10.164062 -3.972656 10.421875 -4.671875 10.421875 -5.546875 L 10.421875 -13.53125 L 13.875 -13.53125 L 13.875 0 L 11.140625 0 L 11.140625 -5.75 L 11.421875 -5.75 C 11.421875 -4.382812 11.242188 -3.242188 10.890625 -2.328125 C 10.546875 -1.421875 10.023438 -0.734375 9.328125 -0.265625 C 8.628906 0.191406 7.757812 0.421875 6.71875 0.421875 Z M 6.5625 0.421875 "/></g></g></g><g fill="#ffffff" fill-opacity="1"><g transform="translate(50.547752, 22.212116)"><g><path d="M 7.953125 0.46875 C 6.773438 0.46875 5.757812 0.269531 4.90625 -0.125 C 4.050781 -0.519531 3.335938 -1.050781 2.765625 -1.71875 C 2.203125 -2.382812 1.773438 -3.128906 1.484375 -3.953125 C 1.203125 -4.785156 1.0625 -5.632812 1.0625 -6.5 L 1.0625 -6.96875 C 1.0625 -7.875 1.207031 -8.742188 1.5 -9.578125 C 1.789062 -10.421875 2.226562 -11.171875 2.8125 -11.828125 C 3.394531 -12.484375 4.113281 -13.003906 4.96875 -13.390625 C 5.820312 -13.785156 6.8125 -13.984375 7.9375 -13.984375 C 9.113281 -13.984375 10.164062 -13.753906 11.09375 -13.296875 C 12.019531 -12.835938 12.757812 -12.203125 13.3125 -11.390625 C 13.875 -10.578125 14.1875 -9.632812 14.25 -8.5625 L 10.890625 -8.5625 C 10.804688 -9.257812 10.507812 -9.835938 10 -10.296875 C 9.5 -10.765625 8.8125 -11 7.9375 -11 C 7.175781 -11 6.539062 -10.816406 6.03125 -10.453125 C 5.53125 -10.085938 5.15625 -9.582031 4.90625 -8.9375 C 4.65625 -8.300781 4.53125 -7.566406 4.53125 -6.734375 C 4.53125 -5.941406 4.648438 -5.222656 4.890625 -4.578125 C 5.128906 -3.929688 5.5 -3.425781 6 -3.0625 C 6.507812 -2.695312 7.160156 -2.515625 7.953125 -2.515625 C 8.554688 -2.515625 9.070312 -2.617188 9.5 -2.828125 C 9.9375 -3.046875 10.28125 -3.34375 10.53125 -3.71875 C 10.789062 -4.101562 10.953125 -4.539062 11.015625 -5.03125 L 14.375 -5.03125 C 14.3125 -3.9375 13.992188 -2.976562 13.421875 -2.15625 C 12.847656 -1.332031 12.09375 -0.6875 11.15625 -0.21875 C 10.21875 0.238281 9.148438 0.46875 7.953125 0.46875 Z M 7.953125 0.46875 "/></g></g></g><g fill="#ffffff" fill-opacity="1"><g transform="translate(65.722087, 22.212116)"><g><path d="M 10.15625 0 L 10.15625 -4 L 9.578125 -4 L 9.578125 -8.453125 C 9.578125 -9.234375 9.382812 -9.8125 9 -10.1875 C 8.625 -10.570312 8.035156 -10.765625 7.234375 -10.765625 C 6.816406 -10.765625 6.316406 -10.753906 5.734375 -10.734375 C 5.160156 -10.722656 4.578125 -10.703125 3.984375 -10.671875 C 3.398438 -10.648438 2.875 -10.625 2.40625 -10.59375 L 2.40625 -13.53125 C 2.789062 -13.5625 3.222656 -13.59375 3.703125 -13.625 C 4.179688 -13.664062 4.671875 -13.6875 5.171875 -13.6875 C 5.679688 -13.695312 6.160156 -13.703125 6.609375 -13.703125 C 8.003906 -13.703125 9.160156 -13.519531 10.078125 -13.15625 C 11.003906 -12.789062 11.703125 -12.21875 12.171875 -11.4375 C 12.648438 -10.65625 12.890625 -9.640625 12.890625 -8.390625 L 12.890625 0 Z M 5.796875 0.34375 C 4.816406 0.34375 3.957031 0.171875 3.21875 -0.171875 C 2.476562 -0.523438 1.90625 -1.023438 1.5 -1.671875 C 1.09375 -2.316406 0.890625 -3.09375 0.890625 -4 C 0.890625 -5 1.132812 -5.8125 1.625 -6.4375 C 2.113281 -7.070312 2.800781 -7.546875 3.6875 -7.859375 C 4.582031 -8.171875 5.625 -8.328125 6.8125 -8.328125 L 9.953125 -8.328125 L 9.953125 -6.265625 L 6.765625 -6.265625 C 5.972656 -6.265625 5.363281 -6.066406 4.9375 -5.671875 C 4.507812 -5.285156 4.296875 -4.785156 4.296875 -4.171875 C 4.296875 -3.566406 4.507812 -3.070312 4.9375 -2.6875 C 5.363281 -2.300781 5.972656 -2.109375 6.765625 -2.109375 C 7.242188 -2.109375 7.6875 -2.195312 8.09375 -2.375 C 8.5 -2.550781 8.835938 -2.847656 9.109375 -3.265625 C 9.390625 -3.691406 9.546875 -4.269531 9.578125 -5 L 10.421875 -4.03125 C 10.335938 -3.082031 10.109375 -2.285156 9.734375 -1.640625 C 9.359375 -0.992188 8.84375 -0.5 8.1875 -0.15625 C 7.539062 0.175781 6.742188 0.34375 5.796875 0.34375 Z M 5.796875 0.34375 "/></g></g></g><g fill="#ffffff" fill-opacity="1"><g transform="translate(80.349148, 22.212116)"><g><path d="M 6.859375 0.421875 C 5.003906 0.421875 3.550781 0.03125 2.5 -0.75 C 1.445312 -1.539062 0.894531 -2.632812 0.84375 -4.03125 L 3.953125 -4.03125 C 4.003906 -3.5625 4.257812 -3.132812 4.71875 -2.75 C 5.1875 -2.375 5.921875 -2.1875 6.921875 -2.1875 C 7.742188 -2.1875 8.398438 -2.332031 8.890625 -2.625 C 9.378906 -2.925781 9.625 -3.335938 9.625 -3.859375 C 9.625 -4.304688 9.4375 -4.660156 9.0625 -4.921875 C 8.6875 -5.191406 8.050781 -5.367188 7.15625 -5.453125 L 5.96875 -5.578125 C 4.457031 -5.742188 3.296875 -6.171875 2.484375 -6.859375 C 1.671875 -7.554688 1.265625 -8.488281 1.265625 -9.65625 C 1.265625 -10.582031 1.492188 -11.359375 1.953125 -11.984375 C 2.421875 -12.617188 3.066406 -13.097656 3.890625 -13.421875 C 4.710938 -13.742188 5.65625 -13.90625 6.71875 -13.90625 C 8.375 -13.90625 9.710938 -13.539062 10.734375 -12.8125 C 11.765625 -12.082031 12.304688 -11.015625 12.359375 -9.609375 L 9.25 -9.609375 C 9.21875 -10.066406 8.984375 -10.460938 8.546875 -10.796875 C 8.117188 -11.128906 7.5 -11.296875 6.6875 -11.296875 C 5.957031 -11.296875 5.394531 -11.15625 5 -10.875 C 4.601562 -10.59375 4.40625 -10.226562 4.40625 -9.78125 C 4.40625 -9.34375 4.566406 -9.007812 4.890625 -8.78125 C 5.210938 -8.550781 5.738281 -8.394531 6.46875 -8.3125 L 7.65625 -8.1875 C 9.25 -8.019531 10.5 -7.578125 11.40625 -6.859375 C 12.3125 -6.148438 12.765625 -5.191406 12.765625 -3.984375 C 12.765625 -3.085938 12.519531 -2.3125 12.03125 -1.65625 C 11.539062 -1 10.851562 -0.488281 9.96875 -0.125 C 9.09375 0.238281 8.054688 0.421875 6.859375 0.421875 Z M 6.859375 0.421875 "/></g></g></g><g fill="#daa520" fill-opacity="1"><g transform="translate(169.480712, 22.292382)"><g><path d="M 2.03125 0 L 2.03125 -2.453125 L 4.359375 -2.453125 L 4.359375 0 Z M 2.03125 0 "/></g></g></g></svg>